<svg xmlns="http://www.w3.org/2000/svg" viewBox="0 0 500 500"><g id="freepik--background-complete--inject-114"><path d="M393.27,317.77a3,3,0,1,0,.35,0" style="fill:#f5f5f5"></path><path d="M406.51,308a5.11,5.11,0,1,0,.35-.24" style="fill:#f5f5f5"></path><path d="M480,279.43a25.8,25.8,0,0,0-2.69-26.11c12.94-5.52,19.9-22,14.81-35.16s-21.38-20.62-34.65-16a30.14,30.14,0,0,0-57.15-6.94,18.16,18.16,0,0,0-19.93,26.85,19.9,19.9,0,0,0,5.6,35.49A27.63,27.63,0,1,0,433.39,286a30.43,30.43,0,0,0,25.1,8.92A27.94,27.94,0,0,0,480,279.43Z" style="fill:#fafafa"></path><rect x="399.93" y="236.99" width="13.4" height="1.16" style="fill:#ebebeb"></rect><polygon points="440.14 248.37 440.14 251.18 437.1 251.18 437.1 248.37 432.38 248.37 432.38 251.18 429.26 251.18 429.26 248.37 427.12 248.37 427.12 248.37 424.98 248.37 424.98 251.18 421.86 251.18 421.86 248.37 417.14 248.37 417.14 251.18 414.1 251.18 414.1 248.37 409.38 248.37 411.73 258.02 411.73 272.15 427.12 272.15 427.12 272.15 442.51 272.15 442.51 258.02 444.86 248.37 440.14 248.37" style="fill:#ebebeb"></polygon><polygon points="435.76 229.69 435.76 231.53 433.78 231.53 433.78 229.69 430.69 229.69 430.69 231.53 428.66 231.53 428.66 229.69 427.12 229.69 425.58 229.69 425.58 231.53 423.55 231.53 423.55 229.69 420.46 229.69 420.46 231.53 418.48 231.53 418.48 229.69 415.4 229.69 417.05 236.48 418.04 236.48 418.48 236.48 420.46 236.48 421.12 236.48 423.27 236.48 423.55 236.48 425.58 236.48 426.35 236.48 426.85 236.48 427.12 235.47 427.39 236.48 427.88 236.48 428.66 236.48 430.69 236.48 430.97 236.48 433.12 236.48 433.78 236.48 435.76 236.48 436.2 236.48 437.19 236.48 438.84 229.69 435.76 229.69" style="fill:#ebebeb"></polygon><path d="M410.52,223.4l-4-10.67-4,10.67a13.56,13.56,0,0,0-3.95,4,33.79,33.79,0,0,1,15.83,0A13.59,13.59,0,0,0,410.52,223.4Z" style="fill:#ebebeb"></path><rect x="440.85" y="236.99" width="13.4" height="1.16" transform="translate(895.09 475.14) rotate(180)" style="fill:#ebebeb"></rect><path d="M443.66,223.4l4-10.67,4,10.67a13.59,13.59,0,0,1,3.94,4,33.75,33.75,0,0,0-15.82,0A13.42,13.42,0,0,1,443.66,223.4Z" style="fill:#ebebeb"></path><path d="M395.38,208.4l-.44.11a14.93,14.93,0,0,1-3.71.42c-.74,0-3,0-3.5-.52,1.71,1.77,4.49,2,6.91,1.57s4.79-1.3,7.25-1.28a10.05,10.05,0,0,1,4.56,1.13c0-.7.05-1.48.05-2.18a.6.6,0,0,0-.07-.35.56.56,0,0,0-.28-.22,8.63,8.63,0,0,0-5.17-.52C399,206.9,397.29,207.89,395.38,208.4Z" style="fill:#ebebeb"></path><path d="M458.66,208.4l.44.11a15,15,0,0,0,3.71.42c.75,0,3,0,3.5-.52-1.71,1.77-4.48,2-6.91,1.57s-4.79-1.3-7.25-1.28a10.05,10.05,0,0,0-4.56,1.13c0-.7,0-1.48,0-2.18a.68.68,0,0,1,.06-.35.58.58,0,0,1,.29-.22,8.59,8.59,0,0,1,5.16-.52C455,206.9,456.76,207.89,458.66,208.4Z" style="fill:#ebebeb"></path><path d="M401.72,224.67v47.48h10V224.67Zm7,9.68h-3.91v-3.78a2,2,0,1,1,3.91,0Z" style="fill:#ebebeb"></path><path d="M442.45,224.67v47.48h10V224.67Zm7,9.68h-3.92v-3.78a2,2,0,0,1,3.92,0Z" style="fill:#ebebeb"></path><path d="M418.34,234.88v37.27h2.39v-9.79c0-2.81,2.7-5.09,6-5.09s6,2.28,6,5.09v9.79h2.4V234.88Zm11.08,10.36h-5.24v-5.05a2.62,2.62,0,0,1,5.24,0Z" style="fill:#ebebeb"></path><path d="M412.79,263.45l-3.24,1.81s1.56.75,1.8.79,2.88-.9,3.69-1.06l3.43-.35.21-1.49.8.17.26-.77a2.32,2.32,0,0,1,2.17,0c1.21.62,4.29,3.48,6.86,4.4a13.91,13.91,0,0,0,6.79.85c2.8-.21,3.75-1.42,6.7-1.24s6.09,1.16,9.31,1.23,5.43-.1,7.28-1.94,4.72-4.74,4-10.12-2.89-5.88-4.38-9.12-1.76-7.67,1.19-9.08,10.5-3.07,10.89,4.16c0,0,.3,3.31-1.32,5l-1.22.21-2.74,4,4.23-2.54.23-1.25a9.59,9.59,0,0,0,2.26-4.19c.28-2,.68-5.65-3.33-8.12s-10-1.12-11.91.81-4.12,4.66-3,9.27,3.28,8,3.8,10,1.2,4.11-.59,5.71-5.54,1-6.39.38-5.66-3.45-9.85-3c0,0-2.34.07-4.81,2.88-2.62,3-5.82,2.68-6.69,2-1.74-1.35-4.85-3.15-7.4-2.95a23.88,23.88,0,0,0-4.43.69s1-2.66,1-2.93-1.94,1.42-2.12,2.76a13.9,13.9,0,0,0,1-2.93c-.15-.3-2.17,2.28-2.34,3.41s-.15,0-.15,0L412.51,263Z" style="fill:#e0e0e0"></path><path d="M435.94,260.77a2.27,2.27,0,0,0-1-2.34c-1.2-.62-12.41-4-11.92-8.26s5.86-21.24,30.64-22.43c0,0-10.94,8.35-4.1,20.79,0,0-4.43,3.4-3.1,7.52,0,0-8.85.57-8.49,1.24a5.83,5.83,0,0,0,.92,1.22Z" style="fill:#e0e0e0"></path><path d="M431.65,267.5a12.6,12.6,0,0,0,4.07,2.29,1,1,0,0,1,.62.4.72.72,0,0,1-.34.84,5.53,5.53,0,0,1-.91.35.91.91,0,0,0-.64.69l3.11.07a5.89,5.89,0,0,1,.71-1.65,2.61,2.61,0,0,0,.36-.68.71.71,0,0,0-.17-.73,2.87,2.87,0,0,1-2.25-2.73" style="fill:#e0e0e0"></path><path d="M444.43,266.48a5.28,5.28,0,0,0,3.2,3.12,3,3,0,0,1-1.36,1.53c-.35.13-.73.13-1.08.25s-.7.41-.67.78l4.09.19a7.31,7.31,0,0,1,3.83-4.51" style="fill:#e0e0e0"></path><path d="M470,272.15c0,.15-17.29.26-38.61.26s-38.62-.11-38.62-.26,17.29-.26,38.62-.26S470,272,470,272.15Z" style="fill:#e0e0e0"></path><rect x="83.22" y="346.77" width="7.7" height="57.67" transform="translate(-288.54 462.68) rotate(-90)" style="fill:#e0e0e0"></rect><path d="M66.09,372.08c.2,0,.36,1.61.36,3.6s-.16,3.61-.36,3.61-.36-1.61-.36-3.61S65.89,372.08,66.09,372.08Z" style="fill:#fafafa"></path><path d="M64.84,371.92c.2,0,.36,1.61.36,3.61s-.16,3.61-.36,3.61-.37-1.62-.37-3.61S64.64,371.92,64.84,371.92Z" style="fill:#fafafa"></path><path d="M111.44,372.08c.2,0,.37,1.61.37,3.6s-.17,3.61-.37,3.61-.36-1.61-.36-3.61S111.24,372.08,111.44,372.08Z" style="fill:#fafafa"></path><ellipse cx="110.19" cy="375.53" rx="0.36" ry="3.61" style="fill:#fafafa"></ellipse><path d="M102.65,375.84c0,.2-6.6.36-14.75.36s-14.75-.16-14.75-.36,6.61-.36,14.75-.36S102.65,375.64,102.65,375.84Z" style="fill:#fafafa"></path><rect x="79.12" y="385.31" width="15.41" height="57.67" transform="translate(-327.33 500.96) rotate(-90)" style="fill:#e0e0e0"></rect><path d="M116.39,417.52a1.34,1.34,0,0,1-.31.18c-.21.1-.53.25-1,.43a16.63,16.63,0,0,1-3.91,1.12,10.15,10.15,0,0,1-6.35-.9,8.44,8.44,0,0,1-3-2.73,6.33,6.33,0,0,1-1-4.44,4.72,4.72,0,0,1,1.06-2.29,3.05,3.05,0,0,1,2.43-1.11,3.54,3.54,0,0,1,2.45,1.32,4.75,4.75,0,0,1,1.11,2.63,7,7,0,0,1-2,5.46,8.8,8.8,0,0,1-5.55,2.71,14.79,14.79,0,0,1-6.43-.8,11.88,11.88,0,0,1-5.62-3.78A6.15,6.15,0,0,1,87,412a4.3,4.3,0,0,1,1.23-3.46,2.79,2.79,0,0,1,1.8-.8,3.29,3.29,0,0,1,1.89.54,5,5,0,0,1,2.12,3.1,7.28,7.28,0,0,1-2.27,6.79,11.33,11.33,0,0,1-6.5,2.64,16,16,0,0,1-6.73-.66,9.29,9.29,0,0,1-5.12-4,6.83,6.83,0,0,1-.64-6.12,3.22,3.22,0,0,1,2.35-2,3.74,3.74,0,0,1,2.91.7A4.8,4.8,0,0,1,79.37,414a9.06,9.06,0,0,1-2.9,4.1,13.12,13.12,0,0,1-7.91,3.07,12.7,12.7,0,0,1-6.27-1.43A12.53,12.53,0,0,1,59,417.27c-.31-.34-.55-.61-.69-.8a1.34,1.34,0,0,1-.2-.3,14.54,14.54,0,0,0,4.29,3.27,12.41,12.41,0,0,0,6.12,1.27,12.69,12.69,0,0,0,7.59-3,8.58,8.58,0,0,0,2.71-3.87,4.26,4.26,0,0,0-1.2-4.55,3.13,3.13,0,0,0-2.43-.57,2.56,2.56,0,0,0-1.88,1.64,6.17,6.17,0,0,0,.63,5.52,8.6,8.6,0,0,0,4.77,3.67,15.53,15.53,0,0,0,6.43.61,10.65,10.65,0,0,0,6.08-2.47,6.56,6.56,0,0,0,2.05-6.09,4.29,4.29,0,0,0-1.8-2.66,2.2,2.2,0,0,0-2.81.17,3.63,3.63,0,0,0-1,2.89,5.47,5.47,0,0,0,1.16,2.95,11.26,11.26,0,0,0,5.27,3.55,14.16,14.16,0,0,0,6.13.79,8.17,8.17,0,0,0,5.16-2.48,6.42,6.42,0,0,0,1.86-5c-.14-1.69-1.44-3.34-3-3.45a2.52,2.52,0,0,0-2,.9,4.27,4.27,0,0,0-1,2,5.85,5.85,0,0,0,.93,4.1,8.09,8.09,0,0,0,2.82,2.63,9.91,9.91,0,0,0,6.11,1,18.21,18.21,0,0,0,3.89-1A13.56,13.56,0,0,1,116.39,417.52Z" style="fill:#fafafa"></path><rect x="76.03" y="366.79" width="26.73" height="52.52" transform="translate(-303.65 482.44) rotate(-90)" style="fill:#ebebeb"></rect><path d="M71.86,380.6c.2,0,.36,5.79.36,12.94s-.16,12.94-.36,12.94-.36-5.8-.36-12.94S71.66,380.6,71.86,380.6Z" style="fill:#e0e0e0"></path><path d="M75.84,380.27c.2,0,.37,5.72.37,12.77s-.17,12.77-.37,12.77-.36-5.71-.36-12.77S75.64,380.27,75.84,380.27Z" style="fill:#e0e0e0"></path><path d="M109.72,379.41c.2,0,.36,6,.36,13.45s-.16,13.45-.36,13.45-.37-6-.37-13.45S109.52,379.41,109.72,379.41Z" style="fill:#e0e0e0"></path><path d="M105,379.77c.2,0,.36,5.87.36,13.1S105.24,406,105,406s-.37-5.87-.37-13.11S104.84,379.77,105,379.77Z" style="fill:#e0e0e0"></path><rect x="84.02" y="296.17" width="7.7" height="57.67" transform="translate(-237.13 412.87) rotate(-90)" style="fill:#e0e0e0"></rect><path d="M66.89,321.47c.2,0,.37,1.62.37,3.61s-.17,3.61-.37,3.61-.36-1.62-.36-3.61S66.69,321.47,66.89,321.47Z" style="fill:#fafafa"></path><path d="M65.64,321.31c.2,0,.36,1.62.36,3.61s-.16,3.61-.36,3.61-.37-1.62-.37-3.61S65.44,321.31,65.64,321.31Z" style="fill:#fafafa"></path><path d="M112.24,321.47c.2,0,.37,1.62.37,3.61s-.17,3.61-.37,3.61-.36-1.62-.36-3.61S112,321.47,112.24,321.47Z" style="fill:#fafafa"></path><path d="M111,321.31c.2,0,.36,1.62.36,3.61s-.16,3.61-.36,3.61-.36-1.62-.36-3.61S110.79,321.31,111,321.31Z" style="fill:#fafafa"></path><path d="M103.46,325.24c0,.2-6.61.36-14.75.36S74,325.44,74,325.24s6.61-.37,14.76-.37S103.46,325,103.46,325.24Z" style="fill:#fafafa"></path><rect x="79.92" y="334.71" width="15.41" height="57.67" transform="translate(-275.92 451.16) rotate(-90)" style="fill:#e0e0e0"></rect><path d="M117.19,366.91a1.34,1.34,0,0,1-.31.18c-.21.11-.53.26-1,.44a17.13,17.13,0,0,1-3.91,1.12,10.29,10.29,0,0,1-6.35-.9,8.63,8.63,0,0,1-3-2.73,6.36,6.36,0,0,1-1.05-4.44,4.71,4.71,0,0,1,1.06-2.3,3,3,0,0,1,2.43-1.1,3.5,3.5,0,0,1,2.45,1.32,4.69,4.69,0,0,1,1.11,2.62,7,7,0,0,1-2,5.46,8.8,8.8,0,0,1-5.55,2.71,14.5,14.5,0,0,1-6.43-.8,11.86,11.86,0,0,1-5.62-3.77,6.21,6.21,0,0,1-1.31-3.33A4.3,4.3,0,0,1,89,357.93a2.78,2.78,0,0,1,1.8-.79,3.28,3.28,0,0,1,1.89.53,5,5,0,0,1,2.12,3.11,7.26,7.26,0,0,1-2.27,6.78,11.41,11.41,0,0,1-6.5,2.65,15.88,15.88,0,0,1-6.73-.67,9.28,9.28,0,0,1-5.12-4,6.83,6.83,0,0,1-.64-6.12,3.26,3.26,0,0,1,2.35-2,3.78,3.78,0,0,1,2.91.7,4.81,4.81,0,0,1,1.37,5.2,9,9,0,0,1-2.9,4.09,13.12,13.12,0,0,1-7.91,3.07,12.7,12.7,0,0,1-6.27-1.42,12.5,12.5,0,0,1-3.26-2.42,8.36,8.36,0,0,1-.7-.81,1.47,1.47,0,0,1-.2-.29,14.75,14.75,0,0,0,4.29,3.27,12.64,12.64,0,0,0,6.12,1.27,12.77,12.77,0,0,0,7.59-3.06,8.5,8.5,0,0,0,2.71-3.86,4.27,4.27,0,0,0-1.2-4.56,3.18,3.18,0,0,0-2.43-.57,2.58,2.58,0,0,0-1.88,1.64,6.17,6.17,0,0,0,.63,5.52,8.63,8.63,0,0,0,4.77,3.67,15.37,15.37,0,0,0,6.43.61A10.65,10.65,0,0,0,92,367a6.53,6.53,0,0,0,2-6.09,4.29,4.29,0,0,0-1.8-2.66,2.23,2.23,0,0,0-2.81.17,3.63,3.63,0,0,0-1,2.89,5.47,5.47,0,0,0,1.16,3,11.18,11.18,0,0,0,5.27,3.55,14.19,14.19,0,0,0,6.14.79,8.12,8.12,0,0,0,5.15-2.48,6.42,6.42,0,0,0,1.86-5c-.14-1.7-1.44-3.35-3-3.45a2.49,2.49,0,0,0-2,.9,4.24,4.24,0,0,0-1,2,5.85,5.85,0,0,0,.93,4.1,8.09,8.09,0,0,0,2.82,2.63,10,10,0,0,0,6.11,1,18.39,18.39,0,0,0,3.9-1C116.73,367.08,117.18,366.88,117.19,366.91Z" style="fill:#fafafa"></path><rect x="76.83" y="316.18" width="26.73" height="52.52" transform="translate(-252.25 432.64) rotate(-90)" style="fill:#ebebeb"></rect><path d="M72.66,330c.2,0,.36,5.8.36,12.94s-.16,12.94-.36,12.94-.36-5.79-.36-12.94S72.46,330,72.66,330Z" style="fill:#e0e0e0"></path><path d="M76.64,329.66c.2,0,.37,5.72.37,12.77s-.17,12.78-.37,12.78-.36-5.72-.36-12.78S76.44,329.66,76.64,329.66Z" style="fill:#e0e0e0"></path><path d="M110.52,328.8c.2,0,.36,6,.36,13.45s-.16,13.45-.36,13.45-.37-6-.37-13.45S110.32,328.8,110.52,328.8Z" style="fill:#e0e0e0"></path><path d="M105.84,329.16c.2,0,.36,5.87.36,13.11s-.16,13.1-.36,13.1-.37-5.86-.37-13.1S105.64,329.16,105.84,329.16Z" style="fill:#e0e0e0"></path><rect x="34.76" y="78.16" width="80.85" height="117.18" style="fill:#e0e0e0"></rect><rect x="30.71" y="78.16" width="80.85" height="117.18" style="fill:#f5f5f5"></rect><rect x="40.76" y="90.85" width="60.76" height="91.8" style="fill:#fff"></rect><path d="M101.51,182.65s0-.15,0-.45,0-.73,0-1.3c0-1.15,0-2.84,0-5,0-4.4,0-10.82-.06-18.91,0-16.19-.06-39.11-.1-66.11l.2.2-60.75,0h0l.22-.22c0,34.63,0,66.56,0,91.8l-.17-.17,44.22.09,12.22,0,3.21,0,1.1,0-1.07,0-3.17,0-12.18,0-44.33.1h-.18v-.18c0-25.24,0-57.17,0-91.8v-.22h.22l60.75,0h.21v.2c0,27.05-.08,50-.1,66.24,0,8.08-.05,14.47-.06,18.86,0,2.18,0,3.85,0,5,0,.55,0,1,0,1.28S101.51,182.65,101.51,182.65Z" style="fill:#e0e0e0"></path><path d="M111.79,78.16a14.8,14.8,0,0,1-1.45,2.09c-.93,1.26-2.27,3-3.79,4.82s-2.94,3.48-4,4.64a15,15,0,0,1-1.77,1.82,14.42,14.42,0,0,1,1.54-2l3.89-4.72,3.89-4.73A14.91,14.91,0,0,1,111.79,78.16Z" style="fill:#e0e0e0"></path><path d="M101.82,182.36a75.55,75.55,0,0,0,10.6,13.25" style="fill:#fff"></path><path d="M112.42,195.61a12.58,12.58,0,0,1-1.85-1.68c-1.08-1.1-2.52-2.67-4-4.51a56.51,56.51,0,0,1-3.52-4.89,13.13,13.13,0,0,1-1.24-2.17,14.94,14.94,0,0,1,1.49,2c.9,1.25,2.15,3,3.61,4.79s2.86,3.43,3.88,4.57A16.33,16.33,0,0,1,112.42,195.61Z" style="fill:#e0e0e0"></path><path d="M30.7,195.25l10.59-13.07" style="fill:#fff"></path><path d="M41.29,182.18a81.15,81.15,0,0,1-5.12,6.68,80.46,80.46,0,0,1-5.47,6.39,82.1,82.1,0,0,1,5.12-6.67C38.75,185,41.2,182.11,41.29,182.18Z" style="fill:#e0e0e0"></path><path d="M30.71,78.16a71.54,71.54,0,0,1,5.14,6.14,74.45,74.45,0,0,1,4.8,6.42,69.69,69.69,0,0,1-5.14-6.14A72.68,72.68,0,0,1,30.71,78.16Z" style="fill:#e0e0e0"></path><rect x="62.24" y="109.49" width="20.34" height="57.76" style="fill:#e0e0e0"></rect><polygon points="475.81 51.31 475.81 115.12 384.15 115.12 380.85 51.75 475.81 51.31" style="fill:#e0e0e0"></polygon><rect x="395.06" y="37.54" width="63.23" height="91.65" transform="translate(343.31 510.05) rotate(-90)" style="fill:#fff"></rect><path d="M472.94,115.42H380.42V51.32h92.52Zm-91.65-.87h90.78V52.19H381.29Z" style="fill:#e0e0e0"></path><rect x="390.78" y="59.61" width="71.8" height="47.52" style="fill:#fff"></rect><path d="M462.58,59.61H461.2l-3.94,0-14.8.05-51.68.11.21-.21c0,14.52,0,30.6,0,47.51h0l-.23-.23,71.8,0-.18.18c0-14.46.07-26.32.09-34.58,0-4.12,0-7.35.05-9.56,0-1.09,0-1.93,0-2.51s0-.87,0-.87,0,.28,0,.83,0,1.4,0,2.48c0,2.2,0,5.41,0,9.52,0,8.29.06,20.18.1,34.69v.18h-.18l-71.8,0h-.23v-.23h0c0-16.91,0-33,0-47.51V59.4h.21l51.82.1,14.75.06,3.9,0,1,0Z" style="fill:#e0e0e0"></path><path d="M380.85,51.58a7.47,7.47,0,0,1,1.58,1c.94.67,2.21,1.63,3.59,2.74s2.59,2.14,3.45,2.93a7.37,7.37,0,0,1,1.31,1.34,61.86,61.86,0,0,1-5-3.92A53,53,0,0,1,380.85,51.58Z" style="fill:#e0e0e0"></path><path d="M472.51,51.75a45.59,45.59,0,0,1-4.83,4.11,43.84,43.84,0,0,1-5.1,3.75,43.63,43.63,0,0,1,4.82-4.11A44.85,44.85,0,0,1,472.51,51.75Z" style="fill:#e0e0e0"></path><path d="M472.43,115l-10.22-8.28" style="fill:#fff"></path><path d="M462.21,106.71a47.88,47.88,0,0,1,5.26,4,48,48,0,0,1,5,4.31,46.37,46.37,0,0,1-5.25-4A49.44,49.44,0,0,1,462.21,106.71Z" style="fill:#e0e0e0"></path><path d="M380.85,115a44,44,0,0,1,4.78-4.07,45.35,45.35,0,0,1,5.05-3.71,43.29,43.29,0,0,1-4.77,4.07A46,46,0,0,1,380.85,115Z" style="fill:#e0e0e0"></path><rect x="419.99" y="59.78" width="15.91" height="45.18" transform="translate(345.58 510.32) rotate(-90)" style="fill:#e0e0e0"></rect><path d="M66.84,234a13.32,13.32,0,0,1,9.29,4.86,23.56,23.56,0,0,1,4.67,9.61c1.74,6.74.57,14.66-1.4,21.33-7.26-2.66-11.68-10.46-13.67-14.55-3.15-6.48-4.91-20.09,1.11-21.25" style="fill:#f5f5f5"></path><path d="M89.79,278a11.44,11.44,0,0,1-.43-11.47,15.16,15.16,0,0,1,9.2-7.27c1.78-.53,3.84-.74,5.38.31a4.88,4.88,0,0,1,1.84,4.59,9.94,9.94,0,0,1-2.13,4.69c-3.58,4.76-7.92,8.71-13.86,9.15" style="fill:#ebebeb"></path><path d="M82.05,285.12a26.74,26.74,0,0,0-21-12.46c-2.15-.11-4.73.31-5.65,2.26s.41,4.21,1.91,5.77a22.85,22.85,0,0,0,24.85,5" style="fill:#ebebeb"></path><path d="M89.86,301.09a7.23,7.23,0,0,1-.3-1.43c-.16-.92-.38-2.26-.6-3.92a50.34,50.34,0,0,1-.29-13.1,24.73,24.73,0,0,1,4.85-12.1,17.16,17.16,0,0,1,2.81-2.82,8.83,8.83,0,0,1,.89-.63,1.54,1.54,0,0,1,.32-.19,25,25,0,0,0-3.76,3.84,25.52,25.52,0,0,0-4.66,12,55.35,55.35,0,0,0,.16,13c.19,1.6.34,2.93.46,3.94A10.25,10.25,0,0,1,89.86,301.09Z" style="fill:#e0e0e0"></path><path d="M69.1,244.2a3.2,3.2,0,0,1,.28.55c.19.41.43,1,.73,1.63.63,1.41,1.51,3.48,2.59,6,2.14,5.11,5,12.21,8,20.12s5.53,15.13,7.31,20.39c.88,2.62,1.58,4.75,2,6.23.22.7.39,1.27.53,1.7a4,4,0,0,1,.15.61,3,3,0,0,1-.24-.58c-.16-.42-.36-1-.61-1.67-.54-1.51-1.28-3.61-2.19-6.19-1.85-5.22-4.44-12.42-7.43-20.33s-5.81-15-7.87-20.16L70,246.45c-.27-.69-.49-1.24-.65-1.66A2.68,2.68,0,0,1,69.1,244.2Z" style="fill:#e0e0e0"></path><path d="M64.48,278.24a6.41,6.41,0,0,1,1.4.08,11.82,11.82,0,0,1,1.62.22,20.92,20.92,0,0,1,2.12.47l1.22.34c.42.12.84.29,1.29.45A27.45,27.45,0,0,1,74.91,281a32.52,32.52,0,0,1,5.84,3.72,33.51,33.51,0,0,1,4.84,4.95,26.64,26.64,0,0,1,1.72,2.49c.24.4.5.78.71,1.17l.58,1.12a20.77,20.77,0,0,1,.88,2A13.17,13.17,0,0,1,90,298a8.19,8.19,0,0,1,.36,1.35c-.1,0-.61-1.9-2.09-4.72-.19-.35-.39-.72-.6-1.09s-.47-.75-.72-1.15c-.48-.8-1.11-1.59-1.73-2.43a34.76,34.76,0,0,0-4.8-4.85,35.34,35.34,0,0,0-5.73-3.71A29.58,29.58,0,0,0,72,280.16c-.43-.17-.85-.35-1.26-.48l-1.2-.36C66.47,278.45,64.47,278.34,64.48,278.24Z" style="fill:#e0e0e0"></path><path d="M76,294.58h26.13a0,0,0,0,1,0,0v13.84a12.29,12.29,0,0,1-12.29,12.29H88.34A12.29,12.29,0,0,1,76,308.42V294.58A0,0,0,0,1,76,294.58Z" style="fill:#e0e0e0"></path><path d="M93.7,294.65a2.46,2.46,0,0,1-.3.77,12.94,12.94,0,0,1-1.16,1.94,15.63,15.63,0,0,1-12.84,6.56,13,13,0,0,1-2.25-.2,2.52,2.52,0,0,1-.8-.21c0-.08,1.17.14,3,.08A16.46,16.46,0,0,0,92,297.17C93.13,295.68,93.63,294.61,93.7,294.65Z" style="fill:#fafafa"></path><path d="M101.93,312.24a2.49,2.49,0,0,1-.84-.18,10,10,0,0,1-2.16-1,11.07,11.07,0,0,1-4.71-13.64,10,10,0,0,1,1.09-2.09,2.7,2.7,0,0,1,.55-.66,24.5,24.5,0,0,0-1.34,2.86,11.23,11.23,0,0,0,4.59,13.26A22.81,22.81,0,0,0,101.93,312.24Z" style="fill:#fafafa"></path><path d="M95.24,320a16.3,16.3,0,0,0-.55-3.86,12,12,0,0,0-2-3.71,13.57,13.57,0,0,0-3.86-3.37,14.84,14.84,0,0,0-9.07-1.74,29.69,29.69,0,0,0-3.83.84,4.29,4.29,0,0,1,1-.44,13.77,13.77,0,0,1,2.82-.72,14.46,14.46,0,0,1,9.34,1.67,13.32,13.32,0,0,1,4,3.5A11.65,11.65,0,0,1,95,316a9.8,9.8,0,0,1,.36,2.89A4.32,4.32,0,0,1,95.24,320Z" style="fill:#fafafa"></path></g><g id="freepik--Floor--inject-114"><path d="M476.58,433.53c0,.14-102.07.26-227.94.26s-227.95-.12-227.95-.26,102-.26,228-.26S476.58,433.38,476.58,433.53Z" style="fill:#263238"></path></g><g id="freepik--Bookcase--inject-114"><rect x="144.54" y="56.5" width="45.32" height="376.72" style="fill:#00FF6A"></rect><g style="opacity:0.6000000000000001"><rect x="144.54" y="56.5" width="45.32" height="376.72"></rect></g><rect x="276.8" y="213.99" width="21.71" height="37.41" transform="translate(575.32 465.4) rotate(180)" style="fill:#00FF6A"></rect><rect x="216.24" y="205.3" width="17.14" height="46.71" transform="translate(449.63 457.3) rotate(180)" style="fill:#455a64"></rect><path d="M216.05,208.67a74.81,74.81,0,0,1,8.75-.26,74.67,74.67,0,0,1,8.75.26,74.67,74.67,0,0,1-8.75.26A74.81,74.81,0,0,1,216.05,208.67Z" style="fill:#fafafa"></path><path d="M217,210.89a64.75,64.75,0,0,1,8.28-.26,64.62,64.62,0,0,1,8.28.26,66.89,66.89,0,0,1-8.28.26A67,67,0,0,1,217,210.89Z" style="fill:#fafafa"></path><path d="M224.33,242.79c-.15,0-.26-6.18-.26-13.81s.11-13.82.26-13.82.26,6.18.26,13.82S224.47,242.79,224.33,242.79Z" style="fill:#fafafa"></path><path d="M216.24,247.07a65.37,65.37,0,0,1,8.4-.27,65.27,65.27,0,0,1,8.39.27,68.82,68.82,0,0,1-8.39.26A68.92,68.92,0,0,1,216.24,247.07Z" style="fill:#fafafa"></path><path d="M216.24,249.07a72.48,72.48,0,0,1,8.61-.26,72.24,72.24,0,0,1,8.6.26,72.24,72.24,0,0,1-8.6.26A72.48,72.48,0,0,1,216.24,249.07Z" style="fill:#fafafa"></path><rect x="233.38" y="200.25" width="13.77" height="51.76" transform="translate(480.52 452.25) rotate(180)" style="fill:#00FF6A"></rect><path d="M233.29,224a12.52,12.52,0,0,1,2.13,1.47l5,3.77,5,3.78a14,14,0,0,1,2,1.66,12.5,12.5,0,0,1-2.21-1.36c-1.32-.9-3.11-2.19-5.06-3.66s-3.66-2.87-4.88-3.9A12.24,12.24,0,0,1,233.29,224Z" style="fill:#fafafa"></path><path d="M233.23,215.91a78.89,78.89,0,0,1,7.05,5.7,77.42,77.42,0,0,1,6.7,6.09,79.69,79.69,0,0,1-7-5.7A78.57,78.57,0,0,1,233.23,215.91Z" style="fill:#fafafa"></path><rect x="173.53" y="202.73" width="6.59" height="49.3" transform="translate(353.64 454.77) rotate(180)" style="fill:#00FF6A"></rect><path d="M173.8,209.45a15.51,15.51,0,0,0,6.17,0,15.51,15.51,0,0,0-6.17,0Z" style="fill:#fafafa"></path><ellipse cx="176.75" cy="208.38" rx="3.09" ry="0.31" style="fill:#fafafa"></ellipse><path d="M173.8,248.23a15.51,15.51,0,0,0,6.17,0,15.51,15.51,0,0,0-6.17,0Z" style="fill:#fafafa"></path><path d="M173.67,247.15a15.51,15.51,0,0,0,6.17,0,15.51,15.51,0,0,0-6.17,0Z" style="fill:#fafafa"></path><path d="M177,240.71c.17,0,.31-5.64.31-12.61s-.14-12.61-.31-12.61-.31,5.64-.31,12.61S176.85,240.71,177,240.71Z" style="fill:#fafafa"></path><rect x="203.04" y="202.42" width="13.17" height="49.3" transform="translate(419.26 454.14) rotate(180)" style="fill:#263238"></rect><path d="M212.51,252.35s.06-.08.16-.26.22-.46.37-.82a14.69,14.69,0,0,0,1-3.35,8.7,8.7,0,0,0-.77-5.42,7.32,7.32,0,0,0-2.34-2.58,5.38,5.38,0,0,0-3.79-.89,4,4,0,0,0-2,.9,2.57,2.57,0,0,0-.95,2.08,3,3,0,0,0,1.13,2.09,4.15,4.15,0,0,0,2.25,1,6,6,0,0,0,4.66-1.7,7.48,7.48,0,0,0,2.32-4.74,12.51,12.51,0,0,0-.68-5.5,10.17,10.17,0,0,0-3.23-4.81,5.34,5.34,0,0,0-2.85-1.12,3.72,3.72,0,0,0-3,1.05,2.36,2.36,0,0,0-.67,1.54,2.83,2.83,0,0,0,.45,1.62,4.29,4.29,0,0,0,2.66,1.81,6.22,6.22,0,0,0,5.8-1.94,9.71,9.71,0,0,0,2.26-5.56,13.57,13.57,0,0,0-.57-5.75,8,8,0,0,0-3.4-4.38,5.86,5.86,0,0,0-5.23-.55,2.75,2.75,0,0,0-1.7,2,3.17,3.17,0,0,0,.6,2.48,4.1,4.1,0,0,0,4.43,1.17,7.66,7.66,0,0,0,3.51-2.48,11.26,11.26,0,0,0,2.62-6.76,10.73,10.73,0,0,0-1.22-5.36,10.62,10.62,0,0,0-2.07-2.79,7.37,7.37,0,0,0-.68-.59c-.16-.13-.25-.19-.26-.18a12.43,12.43,0,0,1,2.8,3.67,10.64,10.64,0,0,1-1.53,11.72,7.22,7.22,0,0,1-3.3,2.31,3.6,3.6,0,0,1-3.89-1,2.63,2.63,0,0,1-.49-2.07,2.22,2.22,0,0,1,1.4-1.62,5.29,5.29,0,0,1,4.72.54,7.33,7.33,0,0,1,3.13,4.08,13.16,13.16,0,0,1,.53,5.5,9.19,9.19,0,0,1-2.11,5.2,5.63,5.63,0,0,1-5.21,1.76,3.7,3.7,0,0,1-2.27-1.54,1.9,1.9,0,0,1,.14-2.41,3.13,3.13,0,0,1,2.47-.86,4.68,4.68,0,0,1,2.52,1,9.55,9.55,0,0,1,3,4.51,12,12,0,0,1,.67,5.24,7,7,0,0,1-2.12,4.41,5.45,5.45,0,0,1-4.24,1.58,3.14,3.14,0,0,1-3-2.55,2.12,2.12,0,0,1,.77-1.71,3.52,3.52,0,0,1,1.73-.82,5,5,0,0,1,3.51.79,7,7,0,0,1,2.24,2.42,8.53,8.53,0,0,1,.84,5.22,15.48,15.48,0,0,1-.84,3.33C212.65,252,212.49,252.34,212.51,252.35Z" style="fill:#fafafa"></path><rect x="180.01" y="206.84" width="22.86" height="44.9" transform="translate(382.87 458.59) rotate(180)" style="fill:#00FF6A"></rect><g style="opacity:0.2"><rect x="180.01" y="206.84" width="22.86" height="44.9" transform="translate(382.87 458.59) rotate(180)"></rect></g><path d="M180.79,214.3c0,.17,5,.31,11.06.31s11.07-.14,11.07-.31-5-.31-11.07-.31S180.79,214.13,180.79,214.3Z" style="fill:#e0e0e0"></path><path d="M180.51,217.71c0,.17,4.89.31,10.92.31s10.92-.14,10.92-.31-4.89-.31-10.92-.31S180.51,217.54,180.51,217.71Z" style="fill:#e0e0e0"></path><path d="M179.77,246.67c0,.17,5.15.31,11.5.31s11.5-.14,11.5-.31-5.14-.31-11.5-.31S179.77,246.5,179.77,246.67Z" style="fill:#e0e0e0"></path><path d="M180.08,242.67c0,.17,5,.31,11.21.31s11.2-.14,11.2-.31-5-.31-11.2-.31S180.08,242.5,180.08,242.67Z" style="fill:#e0e0e0"></path><rect x="247.14" y="202.1" width="13.17" height="49.3" transform="translate(507.45 453.51) rotate(180)" style="fill:#455a64"></rect><path d="M256.6,252a1.13,1.13,0,0,0,.16-.27c.09-.18.22-.45.37-.82a14.09,14.09,0,0,0,1-3.34,8.73,8.73,0,0,0-.77-5.43,7.21,7.21,0,0,0-2.34-2.57,5.38,5.38,0,0,0-3.79-.9,4,4,0,0,0-2,.91,2.62,2.62,0,0,0-.95,2.08,3,3,0,0,0,1.13,2.09,4.14,4.14,0,0,0,2.25,1,6,6,0,0,0,4.67-1.7,7.49,7.49,0,0,0,2.31-4.74,12.53,12.53,0,0,0-.68-5.5,10.1,10.1,0,0,0-3.23-4.8,5.19,5.19,0,0,0-2.84-1.12,3.67,3.67,0,0,0-3,1,2.42,2.42,0,0,0-.68,1.55,2.82,2.82,0,0,0,.45,1.61,4.25,4.25,0,0,0,2.66,1.81,6.18,6.18,0,0,0,5.8-1.94,9.68,9.68,0,0,0,2.26-5.55,13.77,13.77,0,0,0-.56-5.76,7.91,7.91,0,0,0-3.41-4.37,5.8,5.8,0,0,0-5.23-.55,2.75,2.75,0,0,0-1.7,2,3.15,3.15,0,0,0,.6,2.48,4.12,4.12,0,0,0,4.44,1.18,7.77,7.77,0,0,0,3.5-2.49,11.13,11.13,0,0,0,2.62-6.76A10.86,10.86,0,0,0,256.4,203a7.45,7.45,0,0,0-.69-.59,1.29,1.29,0,0,0-.25-.17,12.57,12.57,0,0,1,2.79,3.66,10.65,10.65,0,0,1,1.09,5.23,10.94,10.94,0,0,1-2.62,6.5,7.24,7.24,0,0,1-3.3,2.31,3.64,3.64,0,0,1-3.89-1,2.67,2.67,0,0,1-.49-2.07,2.2,2.2,0,0,1,1.4-1.61,5.29,5.29,0,0,1,4.72.54,7.36,7.36,0,0,1,3.14,4.08,13.26,13.26,0,0,1,.52,5.49,9.06,9.06,0,0,1-2.11,5.2,5.6,5.6,0,0,1-5.21,1.76,3.62,3.62,0,0,1-2.27-1.54,1.88,1.88,0,0,1,.15-2.4,3,3,0,0,1,2.46-.86,4.59,4.59,0,0,1,2.52,1,9.6,9.6,0,0,1,3,4.51,12,12,0,0,1,.67,5.24,6.92,6.92,0,0,1-2.12,4.41,5.47,5.47,0,0,1-4.24,1.59,3.15,3.15,0,0,1-3-2.56,2.14,2.14,0,0,1,.77-1.71,3.61,3.61,0,0,1,1.73-.82,5.05,5.05,0,0,1,3.51.8,7,7,0,0,1,2.25,2.41,8.59,8.59,0,0,1,.83,5.22,15.58,15.58,0,0,1-.83,3.33C256.75,251.65,256.58,252,256.6,252Z" style="fill:#fafafa"></path><rect x="155.22" y="199.61" width="18.31" height="51.79" transform="translate(328.75 451.02) rotate(180)" style="fill:#00FF6A"></rect><g style="opacity:0.30000000000000004"><rect x="155.22" y="199.61" width="18.31" height="51.79" transform="translate(328.75 451.02) rotate(180)" style="fill:#fff"></rect></g><rect x="260.31" y="205.3" width="17.12" height="46.11" transform="translate(537.74 456.7) rotate(180)" style="fill:#263238"></rect><path d="M277.86,228.29a14.41,14.41,0,0,0,2.72,1.94,9.49,9.49,0,0,0,3.45,1,8.79,8.79,0,0,0,4.27-.74c1.44-.62,2.77-1.41,4.11-1.87a6.41,6.41,0,0,1,3.73-.34,4,4,0,0,1,2.17,1.31,1.56,1.56,0,0,1,.42.82s-.17-.28-.58-.69a4,4,0,0,0-2.09-1.08,6.2,6.2,0,0,0-3.48.43c-1.28.46-2.58,1.26-4.08,1.9a9,9,0,0,1-4.52.74,9.27,9.27,0,0,1-3.57-1.11,7.8,7.8,0,0,1-2-1.52A2.5,2.5,0,0,1,277.86,228.29Z" style="fill:#fafafa"></path><path d="M277.48,232.86a13.85,13.85,0,0,0,2.72,1.93,9.38,9.38,0,0,0,3.44,1,8.94,8.94,0,0,0,4.28-.75c1.44-.61,2.77-1.41,4.11-1.87a6.48,6.48,0,0,1,3.73-.34,4,4,0,0,1,2.16,1.31c.38.48.45.82.42.82s-.17-.28-.57-.69a4.08,4.08,0,0,0-2.09-1.08,6.32,6.32,0,0,0-3.49.43c-1.28.47-2.58,1.26-4.07,1.9a9,9,0,0,1-4.52.74,9.22,9.22,0,0,1-3.57-1.1,8.12,8.12,0,0,1-2-1.53C277.62,233.16,277.45,232.87,277.48,232.86Z" style="fill:#fafafa"></path><path d="M277.76,218.09a104.45,104.45,0,0,1,10.53-.26,104.32,104.32,0,0,1,10.52.26c0,.14-4.71.26-10.52.26S277.76,218.23,277.76,218.09Z" style="fill:#fafafa"></path><path d="M270,212.73a2.42,2.42,0,0,0-1.49-.13,1.84,1.84,0,0,0-1.16,1,1.53,1.53,0,0,0,.44,1.67,1.55,1.55,0,0,0,1.69.38,1.82,1.82,0,0,0,.92-1.2,2.46,2.46,0,0,0-.19-1.48s.17.06.33.32a1.89,1.89,0,0,1,.22,1.23,2.14,2.14,0,0,1-1.07,1.56,2.1,2.1,0,0,1-2.77-2.67,2.14,2.14,0,0,1,1.51-1.13,1.91,1.91,0,0,1,1.24.17C269.93,212.56,270,212.71,270,212.73Z" style="fill:#fafafa"></path><path d="M268.9,246.79c-.15,0-.27-6.46-.27-14.43s.12-14.44.27-14.44.26,6.46.26,14.44S269,246.79,268.9,246.79Z" style="fill:#fafafa"></path><path d="M305.25,56.5l-159.79-.85H131V433.21h14.44V390.76H305.25v42.45h14.44V56.5Zm0,324.11H145.46V325.76H305.25Zm0-65H145.46V260.76H305.25Zm0-65H145.46V195.77H305.25Zm0-65H145.46V130.77H305.25Zm0-65H145.46v-54H305.25Z" style="fill:#00FF6A"></path><rect x="319.47" y="56.5" width="45.32" height="376.72" style="fill:#00FF6A"></rect><rect x="209.35" y="107.91" width="43.73" height="12.56" style="fill:#455a64"></rect><path d="M213.47,119.61a31.29,31.29,0,0,1-.26-5.75,31.44,31.44,0,0,1,.26-5.76,32.54,32.54,0,0,1,.26,5.76A32.38,32.38,0,0,1,213.47,119.61Z" style="fill:#263238"></path><path d="M215.39,119.61a31.29,31.29,0,0,1-.26-5.75,31.44,31.44,0,0,1,.26-5.76,32.54,32.54,0,0,1,.26,5.76A32.38,32.38,0,0,1,215.39,119.61Z" style="fill:#263238"></path><path d="M246.28,119.61a31.29,31.29,0,0,1-.26-5.75,31.44,31.44,0,0,1,.26-5.76,32.54,32.54,0,0,1,.26,5.76A32.38,32.38,0,0,1,246.28,119.61Z" style="fill:#263238"></path><path d="M248,119.61a32.38,32.38,0,0,1-.26-5.75,32.54,32.54,0,0,1,.26-5.76,31.44,31.44,0,0,1,.26,5.76A31.29,31.29,0,0,1,248,119.61Z" style="fill:#263238"></path><path d="M243.31,114c0,.14-5.67.26-12.66.26S218,114.11,218,114s5.67-.26,12.67-.26S243.31,113.82,243.31,114Z" style="fill:#263238"></path><rect x="212.92" y="95.36" width="43.73" height="12.56" style="fill:#00FF6A"></rect><path d="M217,107.06a30.88,30.88,0,0,1-.27-5.76,30.72,30.72,0,0,1,.27-5.75,32.38,32.38,0,0,1,.26,5.75A32.54,32.54,0,0,1,217,107.06Z" style="fill:#263238"></path><path d="M219,107.06a32.54,32.54,0,0,1-.26-5.76,32.38,32.38,0,0,1,.26-5.75,31.29,31.29,0,0,1,.26,5.75A31.44,31.44,0,0,1,219,107.06Z" style="fill:#263238"></path><path d="M249.85,107.06a31.44,31.44,0,0,1-.26-5.76,31.29,31.29,0,0,1,.26-5.75,32.38,32.38,0,0,1,.26,5.75A32.54,32.54,0,0,1,249.85,107.06Z" style="fill:#263238"></path><path d="M251.57,107.06a32.54,32.54,0,0,1-.26-5.76,32.38,32.38,0,0,1,.26-5.75,32.38,32.38,0,0,1,.26,5.75A32.54,32.54,0,0,1,251.57,107.06Z" style="fill:#263238"></path><path d="M246.88,101.42c0,.14-5.67.26-12.67.26s-12.66-.12-12.66-.26,5.67-.26,12.66-.26S246.88,101.27,246.88,101.42Z" style="fill:#263238"></path><rect x="199.82" y="71.48" width="6.59" height="49.3" style="fill:#00FF6A"></rect><path d="M206.13,78.2a15.51,15.51,0,0,1-6.17,0,15.51,15.51,0,0,1,6.17,0Z" style="fill:#fafafa"></path><path d="M206.27,77.13a15.56,15.56,0,0,1-6.18,0,15.56,15.56,0,0,1,6.18,0Z" style="fill:#fafafa"></path><path d="M206.13,117a15.51,15.51,0,0,1-6.17,0,15.51,15.51,0,0,1,6.17,0Z" style="fill:#fafafa"></path><path d="M206.27,115.9a15.56,15.56,0,0,1-6.18,0,15.56,15.56,0,0,1,6.18,0Z" style="fill:#fafafa"></path><path d="M202.91,109.46c-.17,0-.31-5.64-.31-12.61s.14-12.61.31-12.61.31,5.65.31,12.61S203.08,109.46,202.91,109.46Z" style="fill:#fafafa"></path><rect x="163.71" y="71.17" width="13.17" height="49.3" style="fill:#263238"></rect><path d="M167.42,121.11a1.41,1.41,0,0,1-.15-.27c-.1-.18-.22-.46-.38-.82a14.69,14.69,0,0,1-1-3.35,8.7,8.7,0,0,1,.77-5.42,7.32,7.32,0,0,1,2.34-2.58,5.38,5.38,0,0,1,3.79-.89,4,4,0,0,1,2,.9,2.59,2.59,0,0,1,.94,2.08,3,3,0,0,1-1.13,2.09,4.12,4.12,0,0,1-2.24,1,6,6,0,0,1-4.67-1.7,7.58,7.58,0,0,1-2.32-4.74,12.66,12.66,0,0,1,.68-5.5,10.25,10.25,0,0,1,3.23-4.81,5.37,5.37,0,0,1,2.85-1.12,3.71,3.71,0,0,1,3,1,2.36,2.36,0,0,1,.67,1.54,2.83,2.83,0,0,1-.45,1.62,4.29,4.29,0,0,1-2.66,1.81,6.22,6.22,0,0,1-5.8-1.94,9.71,9.71,0,0,1-2.26-5.55,13.6,13.6,0,0,1,.57-5.76,8,8,0,0,1,3.4-4.38,5.86,5.86,0,0,1,5.23-.55,2.78,2.78,0,0,1,1.71,2,3.21,3.21,0,0,1-.6,2.48,4.12,4.12,0,0,1-4.44,1.17A7.63,7.63,0,0,1,167,87a11.21,11.21,0,0,1-2.63-6.76,10.73,10.73,0,0,1,1.22-5.36,10.62,10.62,0,0,1,2.07-2.79,7.37,7.37,0,0,1,.68-.59c.17-.13.25-.19.26-.18a12.62,12.62,0,0,0-2.8,3.67,10.69,10.69,0,0,0,1.53,11.72A7.22,7.22,0,0,0,170.6,89a3.62,3.62,0,0,0,3.9-1A2.63,2.63,0,0,0,175,85.9a2.2,2.2,0,0,0-1.4-1.62,5.29,5.29,0,0,0-4.72.54,7.42,7.42,0,0,0-3.13,4.08,13.16,13.16,0,0,0-.53,5.5,9.13,9.13,0,0,0,2.12,5.2,5.6,5.6,0,0,0,5.2,1.76,3.68,3.68,0,0,0,2.27-1.54,1.9,1.9,0,0,0-.14-2.41,3.13,3.13,0,0,0-2.47-.86,4.68,4.68,0,0,0-2.52,1,9.51,9.51,0,0,0-3,4.51,11.9,11.9,0,0,0-.68,5.24,7,7,0,0,0,2.12,4.41,5.45,5.45,0,0,0,4.24,1.58,3.14,3.14,0,0,0,2.95-2.55,2.09,2.09,0,0,0-.77-1.71,3.52,3.52,0,0,0-1.73-.82,5.06,5.06,0,0,0-3.51.79,7,7,0,0,0-2.24,2.42,8.53,8.53,0,0,0-.84,5.22A16.1,16.1,0,0,0,167,120C167.28,120.71,167.44,121.09,167.42,121.11Z" style="fill:#fafafa"></path><rect x="177.07" y="75.59" width="22.86" height="44.9" style="fill:#00FF6A"></rect><g style="opacity:0.2"><rect x="177.07" y="75.59" width="22.86" height="44.9"></rect></g><path d="M199.14,83.05c0,.17-4.95.31-11.06.31S177,83.22,177,83.05s4.95-.31,11.06-.31S199.14,82.88,199.14,83.05Z" style="fill:#e0e0e0"></path><path d="M199.42,86.46c0,.17-4.89.31-10.92.31s-10.92-.14-10.92-.31,4.89-.31,10.92-.31S199.42,86.29,199.42,86.46Z" style="fill:#e0e0e0"></path><path d="M200.16,115.42c0,.17-5.15.31-11.5.31s-11.5-.14-11.5-.31,5.15-.31,11.5-.31S200.16,115.25,200.16,115.42Z" style="fill:#e0e0e0"></path><path d="M199.85,111.42c0,.17-5,.31-11.2.31s-11.21-.14-11.21-.31,5-.31,11.21-.31S199.85,111.25,199.85,111.42Z" style="fill:#e0e0e0"></path><rect x="210.39" y="91.15" width="54.15" height="4.21" style="fill:#263238"></rect><path d="M214.4,95.09c-.14,0-.26-.83-.26-1.86s.12-1.86.26-1.86.26.83.26,1.86S214.55,95.09,214.4,95.09Z" style="fill:#fff"></path><path d="M261.15,95.09c-.15,0-.26-.83-.26-1.86s.11-1.86.26-1.86.26.83.26,1.86S261.29,95.09,261.15,95.09Z" style="fill:#fff"></path><path d="M259,93.23c0,.14-9.41.26-21,.26s-21-.12-21-.26,9.42-.26,21-.26S259,93.08,259,93.23Z" style="fill:#fff"></path><rect x="281.09" y="79.62" width="6.89" height="40.99" style="fill:#00FF6A"></rect><g style="opacity:0.30000000000000004"><rect x="281.09" y="79.62" width="6.89" height="40.99"></rect></g><rect x="288.1" y="73.9" width="17.14" height="46.71" style="fill:#455a64"></rect><path d="M305.44,77.27a72.27,72.27,0,0,1-8.75.26,72.14,72.14,0,0,1-8.75-.26,74.67,74.67,0,0,1,8.75-.26A74.81,74.81,0,0,1,305.44,77.27Z" style="fill:#fafafa"></path><path d="M304.5,79.49a67,67,0,0,1-8.28.26,66.89,66.89,0,0,1-8.28-.26,64.62,64.62,0,0,1,8.28-.26A64.75,64.75,0,0,1,304.5,79.49Z" style="fill:#fafafa"></path><path d="M297.16,111.4c-.14,0-.26-6.19-.26-13.82s.12-13.82.26-13.82.27,6.19.27,13.82S297.31,111.4,297.16,111.4Z" style="fill:#fafafa"></path><path d="M305.25,115.67a68.92,68.92,0,0,1-8.4.26,68.82,68.82,0,0,1-8.39-.26,66.48,66.48,0,0,1,8.39-.26A66.58,66.58,0,0,1,305.25,115.67Z" style="fill:#fafafa"></path><path d="M305.25,117.67a70,70,0,0,1-8.61.26,69.79,69.79,0,0,1-8.6-.26,72.24,72.24,0,0,1,8.6-.26A72.48,72.48,0,0,1,305.25,117.67Z" style="fill:#fafafa"></path><rect x="267.43" y="73.9" width="13.77" height="46.71" style="fill:#00FF6A"></rect><path d="M281.29,95.35A11.24,11.24,0,0,1,279.38,97c-1.23.94-2.95,2.2-4.89,3.53s-3.74,2.49-5.06,3.3a11.45,11.45,0,0,1-2.19,1.2,12.41,12.41,0,0,1,2-1.51l5-3.42,5-3.4A12.28,12.28,0,0,1,281.29,95.35Z" style="fill:#fafafa"></path><path d="M281.35,88a74.05,74.05,0,0,1-6.72,5.52,72.46,72.46,0,0,1-7,5.11,74.05,74.05,0,0,1,6.72-5.52A69.72,69.72,0,0,1,281.35,88Z" style="fill:#fafafa"></path><rect x="210.24" y="303.42" width="43.73" height="12.56" transform="translate(464.21 619.41) rotate(180)" style="fill:#455a64"></rect><path d="M249.85,315.12a63.82,63.82,0,0,1,0-11.51,63.82,63.82,0,0,1,0,11.51Z" style="fill:#263238"></path><path d="M247.93,315.12a63.82,63.82,0,0,1,0-11.51,63.82,63.82,0,0,1,0,11.51Z" style="fill:#263238"></path><path d="M217,315.12a63.82,63.82,0,0,1,0-11.51,63.82,63.82,0,0,1,0,11.51Z" style="fill:#263238"></path><path d="M215.32,315.12a63.82,63.82,0,0,1,0-11.51,63.82,63.82,0,0,1,0,11.51Z" style="fill:#263238"></path><path d="M220,309.48c0-.14,5.67-.26,12.66-.26s12.66.12,12.66.26-5.66.26-12.66.26S220,309.62,220,309.48Z" style="fill:#263238"></path><rect x="207.42" y="292.02" width="43.73" height="12.56" transform="translate(458.56 596.6) rotate(180)" style="fill:#00FF6A"></rect><path d="M247,303.72a63.93,63.93,0,0,1,0-11.52,63.93,63.93,0,0,1,0,11.52Z" style="fill:#263238"></path><path d="M245.11,303.72a63.93,63.93,0,0,1,0-11.52,63.93,63.93,0,0,1,0,11.52Z" style="fill:#263238"></path><path d="M214.21,303.72a63.93,63.93,0,0,1,0-11.52,63.93,63.93,0,0,1,0,11.52Z" style="fill:#263238"></path><path d="M212.49,303.72a63.93,63.93,0,0,1,0-11.52,63.93,63.93,0,0,1,0,11.52Z" style="fill:#263238"></path><path d="M217.18,298.07c0-.14,5.67-.26,12.66-.26s12.67.12,12.67.26-5.67.26-12.67.26S217.18,298.22,217.18,298.07Z" style="fill:#263238"></path><rect x="257.65" y="267.1" width="6.59" height="49.3" transform="translate(521.89 583.49) rotate(180)" style="fill:#00FF6A"></rect><path d="M257.93,273.81a15.51,15.51,0,0,0,6.17,0,15.51,15.51,0,0,0-6.17,0Z" style="fill:#fafafa"></path><path d="M257.79,272.74a15.51,15.51,0,0,0,6.17,0,15.51,15.51,0,0,0-6.17,0Z" style="fill:#fafafa"></path><path d="M257.93,312.59a15.51,15.51,0,0,0,6.17,0,15.51,15.51,0,0,0-6.17,0Z" style="fill:#fafafa"></path><path d="M257.79,311.51a15.51,15.51,0,0,0,6.17,0,15.51,15.51,0,0,0-6.17,0Z" style="fill:#fafafa"></path><path d="M261.15,305.07c.17,0,.31-5.64.31-12.61s-.14-12.61-.31-12.61-.31,5.65-.31,12.61S261,305.07,261.15,305.07Z" style="fill:#fafafa"></path><rect x="287.17" y="266.78" width="13.17" height="49.3" transform="translate(587.51 582.86) rotate(180)" style="fill:#263238"></rect><path d="M296.64,316.72a1.41,1.41,0,0,0,.15-.27c.1-.18.22-.46.38-.82a14.27,14.27,0,0,0,.95-3.35,8.7,8.7,0,0,0-.77-5.42,7.2,7.2,0,0,0-2.33-2.58,5.41,5.41,0,0,0-3.8-.89,4,4,0,0,0-2,.9,2.59,2.59,0,0,0-.94,2.08,3,3,0,0,0,1.12,2.09,4.15,4.15,0,0,0,2.25,1,6,6,0,0,0,4.67-1.7,7.58,7.58,0,0,0,2.32-4.74,12.66,12.66,0,0,0-.69-5.5,10.1,10.1,0,0,0-3.23-4.81,5.31,5.31,0,0,0-2.84-1.12,3.71,3.71,0,0,0-3,1.05,2.42,2.42,0,0,0-.68,1.54,2.92,2.92,0,0,0,.46,1.62,4.25,4.25,0,0,0,2.66,1.81,6.22,6.22,0,0,0,5.8-1.94,9.71,9.71,0,0,0,2.26-5.55,13.6,13.6,0,0,0-.57-5.76,8,8,0,0,0-3.4-4.38,5.86,5.86,0,0,0-5.23-.55,2.76,2.76,0,0,0-1.71,2,3.21,3.21,0,0,0,.6,2.48,4.12,4.12,0,0,0,4.44,1.17,7.63,7.63,0,0,0,3.5-2.48,11.21,11.21,0,0,0,2.63-6.76,10.84,10.84,0,0,0-1.22-5.36,10.62,10.62,0,0,0-2.07-2.79c-.29-.27-.52-.47-.68-.59s-.25-.19-.26-.18a12.83,12.83,0,0,1,2.8,3.67,10.69,10.69,0,0,1-1.53,11.72,7.24,7.24,0,0,1-3.3,2.32,3.65,3.65,0,0,1-3.9-1,2.67,2.67,0,0,1-.49-2.07,2.25,2.25,0,0,1,1.4-1.62,5.28,5.28,0,0,1,4.72.54,7.39,7.39,0,0,1,3.14,4.08,13,13,0,0,1,.52,5.5,9.06,9.06,0,0,1-2.11,5.2,5.61,5.61,0,0,1-5.2,1.76,3.73,3.73,0,0,1-2.28-1.54,1.9,1.9,0,0,1,.15-2.41,3.12,3.12,0,0,1,2.47-.86,4.71,4.71,0,0,1,2.52,1,9.58,9.58,0,0,1,3,4.51,11.9,11.9,0,0,1,.68,5.24,7,7,0,0,1-2.12,4.41,5.45,5.45,0,0,1-4.24,1.58,3.14,3.14,0,0,1-2.95-2.55,2.07,2.07,0,0,1,.77-1.71,3.52,3.52,0,0,1,1.73-.82,5,5,0,0,1,3.5.79,6.89,6.89,0,0,1,2.25,2.42,8.44,8.44,0,0,1,.83,5.22,15.58,15.58,0,0,1-.83,3.33A10.58,10.58,0,0,0,296.64,316.72Z" style="fill:#fafafa"></path><rect x="264.13" y="271.2" width="22.86" height="44.9" transform="translate(551.12 587.31) rotate(180)" style="fill:#00FF6A"></rect><g style="opacity:0.2"><rect x="264.13" y="271.2" width="22.86" height="44.9" transform="translate(551.12 587.31) rotate(180)"></rect></g><path d="M264.92,278.66c0,.17,4.95.31,11.06.31s11.06-.14,11.06-.31-5-.31-11.06-.31S264.92,278.49,264.92,278.66Z" style="fill:#e0e0e0"></path><path d="M264.64,282.07c0,.17,4.88.31,10.91.31s10.93-.14,10.93-.31-4.89-.31-10.93-.31S264.64,281.9,264.64,282.07Z" style="fill:#e0e0e0"></path><path d="M263.9,311c0,.17,5.15.31,11.5.31s11.5-.14,11.5-.31-5.15-.31-11.5-.31S263.9,310.86,263.9,311Z" style="fill:#e0e0e0"></path><path d="M264.21,307c0,.17,5,.31,11.2.31s11.21-.14,11.21-.31-5-.31-11.21-.31S264.21,306.86,264.21,307Z" style="fill:#e0e0e0"></path><rect x="199.53" y="287.81" width="54.15" height="4.21" transform="translate(453.2 579.82) rotate(180)" style="fill:#263238"></rect><path d="M249.66,291.75c-.15,0-.26-.84-.26-1.87s.11-1.86.26-1.86.26.84.26,1.86S249.8,291.75,249.66,291.75Z" style="fill:#fff"></path><path d="M202.91,291.75c-.14,0-.26-.84-.26-1.87s.12-1.86.26-1.86.26.84.26,1.86S203.06,291.75,202.91,291.75Z" style="fill:#fff"></path><path d="M205,289.88c0-.14,9.41-.26,21-.26s21,.12,21,.26-9.41.27-21,.27S205,290,205,289.88Z" style="fill:#fff"></path><rect x="176.08" y="275.23" width="6.89" height="40.99" transform="translate(359.04 591.44) rotate(180)" style="fill:#00FF6A"></rect><g style="opacity:0.30000000000000004"><rect x="176.08" y="275.23" width="6.89" height="40.99" transform="translate(359.04 591.44) rotate(180)"></rect></g><rect x="158.81" y="269.51" width="17.14" height="46.71" transform="translate(334.77 585.72) rotate(180)" style="fill:#00FF6A"></rect><path d="M158.61,272.88a74.92,74.92,0,0,1,8.76-.26,74.81,74.81,0,0,1,8.75.26,72.27,72.27,0,0,1-8.75.26A72.38,72.38,0,0,1,158.61,272.88Z" style="fill:#fafafa"></path><path d="M159.56,275.1a64.75,64.75,0,0,1,8.28-.26,64.62,64.62,0,0,1,8.28.26,66.89,66.89,0,0,1-8.28.26A67,67,0,0,1,159.56,275.1Z" style="fill:#fafafa"></path><path d="M166.89,307c-.14,0-.26-6.19-.26-13.82s.12-13.82.26-13.82.26,6.19.26,13.82S167,307,166.89,307Z" style="fill:#fafafa"></path><path d="M158.81,311.28a66.48,66.48,0,0,1,8.39-.26,66.58,66.58,0,0,1,8.4.26,68.92,68.92,0,0,1-8.4.26A68.82,68.82,0,0,1,158.81,311.28Z" style="fill:#fafafa"></path><path d="M158.81,313.28a72.24,72.24,0,0,1,8.6-.26,72.34,72.34,0,0,1,8.61.26,69.89,69.89,0,0,1-8.61.26A69.79,69.79,0,0,1,158.81,313.28Z" style="fill:#fafafa"></path><rect x="182.85" y="269.51" width="13.77" height="46.71" transform="translate(379.48 585.72) rotate(180)" style="fill:#00FF6A"></rect><path d="M182.77,291a12,12,0,0,1,2.13,1.32l5,3.39,5,3.42a12.41,12.41,0,0,1,2,1.51,11.66,11.66,0,0,1-2.2-1.2c-1.31-.81-3.1-2-5.05-3.3s-3.66-2.59-4.89-3.53A10.28,10.28,0,0,1,182.77,291Z" style="fill:#fafafa"></path><path d="M182.71,283.65a71.06,71.06,0,0,1,7,5.11,74.05,74.05,0,0,1,6.72,5.52,70.45,70.45,0,0,1-7-5.11A74.7,74.7,0,0,1,182.71,283.65Z" style="fill:#fafafa"></path><path d="M183.71,183.72c0,.15-4.85.26-10.83.26s-10.83-.11-10.83-.26,4.85-.26,10.83-.26S183.71,183.58,183.71,183.72Z" style="fill:#fafafa"></path><rect x="161.95" y="148.14" width="21.71" height="37.41" style="fill:#00FF6A"></rect><rect x="227.08" y="139.45" width="17.14" height="46.71" style="fill:#455a64"></rect><path d="M244.42,142.82a74.81,74.81,0,0,1-8.75.26,74.92,74.92,0,0,1-8.76-.26,74.92,74.92,0,0,1,8.76-.26A74.81,74.81,0,0,1,244.42,142.82Z" style="fill:#fafafa"></path><path d="M243.47,145a67,67,0,0,1-8.28.26,67,67,0,0,1-8.28-.26,64.75,64.75,0,0,1,8.28-.26A64.75,64.75,0,0,1,243.47,145Z" style="fill:#fafafa"></path><path d="M236.14,176.94c-.14,0-.26-6.18-.26-13.81s.12-13.82.26-13.82.26,6.18.26,13.82S236.29,176.94,236.14,176.94Z" style="fill:#fafafa"></path><path d="M244.22,181.22a68.68,68.68,0,0,1-8.39.26,68.82,68.82,0,0,1-8.39-.26,65.27,65.27,0,0,1,8.39-.27A65.14,65.14,0,0,1,244.22,181.22Z" style="fill:#fafafa"></path><path d="M244.22,183.22a72.24,72.24,0,0,1-8.6.26,72.24,72.24,0,0,1-8.6-.26,72.24,72.24,0,0,1,8.6-.26A72.24,72.24,0,0,1,244.22,183.22Z" style="fill:#fafafa"></path><rect x="213.32" y="134.4" width="13.77" height="51.76" style="fill:#00FF6A"></rect><path d="M227.18,158.17a12.87,12.87,0,0,1-1.9,1.76c-1.22,1-2.94,2.42-4.89,3.9s-3.74,2.76-5.06,3.66a12.26,12.26,0,0,1-2.2,1.36,12.67,12.67,0,0,1,2-1.66l5-3.78,5-3.77A12.52,12.52,0,0,1,227.18,158.17Z" style="fill:#fafafa"></path><path d="M227.24,150.06a78.57,78.57,0,0,1-6.71,6.09,77.26,77.26,0,0,1-7.05,5.7,78.57,78.57,0,0,1,6.71-6.09A77.26,77.26,0,0,1,227.24,150.06Z" style="fill:#fafafa"></path><rect x="280.35" y="136.88" width="6.59" height="49.3" style="fill:#00FF6A"></rect><path d="M286.67,143.6a15.51,15.51,0,0,1-6.17,0,15.51,15.51,0,0,1,6.17,0Z" style="fill:#fafafa"></path><path d="M286.8,142.53a15.51,15.51,0,0,1-6.17,0,15.51,15.51,0,0,1,6.17,0Z" style="fill:#fafafa"></path><path d="M286.67,182.38a15.51,15.51,0,0,1-6.17,0,15.51,15.51,0,0,1,6.17,0Z" style="fill:#fafafa"></path><path d="M286.8,181.3a15.51,15.51,0,0,1-6.17,0,15.51,15.51,0,0,1,6.17,0Z" style="fill:#fafafa"></path><path d="M283.45,174.86c-.17,0-.31-5.64-.31-12.61s.14-12.61.31-12.61.31,5.64.31,12.61S283.62,174.86,283.45,174.86Z" style="fill:#fafafa"></path><rect x="244.25" y="136.57" width="13.17" height="49.3" style="fill:#263238"></rect><path d="M248,186.51a1.13,1.13,0,0,1-.16-.27c-.09-.18-.22-.46-.37-.82a14.19,14.19,0,0,1-1-3.35,8.7,8.7,0,0,1,.77-5.42,7.38,7.38,0,0,1,2.33-2.58,5.41,5.41,0,0,1,3.8-.89,4,4,0,0,1,2,.9,2.63,2.63,0,0,1,.95,2.08,3,3,0,0,1-1.13,2.09,4.15,4.15,0,0,1-2.25,1,6,6,0,0,1-4.67-1.7,7.51,7.51,0,0,1-2.31-4.74,12.51,12.51,0,0,1,.68-5.5,10.17,10.17,0,0,1,3.23-4.81,5.34,5.34,0,0,1,2.84-1.12,3.71,3.71,0,0,1,3,1,2.42,2.42,0,0,1,.68,1.54,2.83,2.83,0,0,1-.45,1.62,4.29,4.29,0,0,1-2.66,1.81,6.23,6.23,0,0,1-5.81-1.94,9.76,9.76,0,0,1-2.25-5.56,13.56,13.56,0,0,1,.56-5.75,8,8,0,0,1,3.41-4.38,5.86,5.86,0,0,1,5.23-.55,2.75,2.75,0,0,1,1.7,2,3.17,3.17,0,0,1-.6,2.48,4.11,4.11,0,0,1-4.44,1.17,7.68,7.68,0,0,1-3.5-2.48,11.13,11.13,0,0,1-2.62-6.76,10.86,10.86,0,0,1,3.28-8.15,6.14,6.14,0,0,1,.69-.59,1.16,1.16,0,0,1,.25-.18,12.72,12.72,0,0,0-2.79,3.67,10.63,10.63,0,0,0-1.09,5.23,10.89,10.89,0,0,0,2.62,6.49,7.17,7.17,0,0,0,3.3,2.31,3.61,3.61,0,0,0,3.89-1,2.67,2.67,0,0,0,.49-2.07,2.22,2.22,0,0,0-1.4-1.62,5.29,5.29,0,0,0-4.72.54,7.39,7.39,0,0,0-3.14,4.08,13.16,13.16,0,0,0-.52,5.5,9.06,9.06,0,0,0,2.11,5.2,5.62,5.62,0,0,0,5.21,1.76,3.73,3.73,0,0,0,2.27-1.54,1.9,1.9,0,0,0-.15-2.41,3.11,3.11,0,0,0-2.46-.86,4.68,4.68,0,0,0-2.52,1,9.55,9.55,0,0,0-3,4.51,12.17,12.17,0,0,0-.68,5.24,7,7,0,0,0,2.13,4.41,5.42,5.42,0,0,0,4.24,1.58,3.14,3.14,0,0,0,3-2.55,2.12,2.12,0,0,0-.77-1.71,3.52,3.52,0,0,0-1.73-.82,5,5,0,0,0-3.51.79,7.07,7.07,0,0,0-2.25,2.42,8.59,8.59,0,0,0-.83,5.22,15.58,15.58,0,0,0,.83,3.33C247.81,186.11,248,186.49,248,186.51Z" style="fill:#fafafa"></path><rect x="257.6" y="140.99" width="22.86" height="44.9" style="fill:#00FF6A"></rect><g style="opacity:0.2"><rect x="257.6" y="140.99" width="22.86" height="44.9"></rect></g><path d="M279.67,148.45c0,.17-4.95.31-11.06.31s-11.06-.14-11.06-.31,4.95-.31,11.06-.31S279.67,148.28,279.67,148.45Z" style="fill:#e0e0e0"></path><path d="M280,151.86c0,.17-4.89.31-10.92.31s-10.92-.14-10.92-.31,4.89-.31,10.92-.31S280,151.69,280,151.86Z" style="fill:#e0e0e0"></path><path d="M280.69,180.82c0,.17-5.15.31-11.5.31s-11.5-.14-11.5-.31,5.15-.31,11.5-.31S280.69,180.65,280.69,180.82Z" style="fill:#e0e0e0"></path><path d="M280.38,176.82c0,.17-5,.31-11.2.31S258,177,258,176.82s5-.31,11.2-.31S280.38,176.65,280.38,176.82Z" style="fill:#e0e0e0"></path><rect x="200.16" y="136.25" width="13.17" height="49.3" style="fill:#455a64"></rect><path d="M203.86,186.19a1.41,1.41,0,0,1-.15-.27c-.09-.18-.22-.45-.38-.82a14.16,14.16,0,0,1-1-3.34,8.73,8.73,0,0,1,.77-5.43,7.09,7.09,0,0,1,2.33-2.57,5.41,5.41,0,0,1,3.8-.9,4,4,0,0,1,2,.91,2.58,2.58,0,0,1,.94,2.08,3,3,0,0,1-1.12,2.09,4.14,4.14,0,0,1-2.25.95,6,6,0,0,1-4.67-1.7,7.55,7.55,0,0,1-2.32-4.74,12.68,12.68,0,0,1,.69-5.5,10,10,0,0,1,3.23-4.8,5.19,5.19,0,0,1,2.84-1.12,3.67,3.67,0,0,1,3,1,2.47,2.47,0,0,1,.68,1.55,2.75,2.75,0,0,1-.46,1.61,4.26,4.26,0,0,1-2.65,1.81,6.21,6.21,0,0,1-5.81-1.94,9.68,9.68,0,0,1-2.26-5.55,13.77,13.77,0,0,1,.57-5.76,7.89,7.89,0,0,1,3.4-4.37,5.82,5.82,0,0,1,5.24-.55,2.77,2.77,0,0,1,1.7,2,3.19,3.19,0,0,1-.6,2.48,4.12,4.12,0,0,1-4.44,1.18,7.72,7.72,0,0,1-3.5-2.49,11.21,11.21,0,0,1-2.63-6.76,11,11,0,0,1,1.22-5.36,10.62,10.62,0,0,1,2.07-2.79,7.45,7.45,0,0,1,.69-.59c.16-.12.24-.18.25-.17a12.37,12.37,0,0,0-2.79,3.66,10.67,10.67,0,0,0-1.09,5.24,10.92,10.92,0,0,0,2.61,6.49,7.32,7.32,0,0,0,3.31,2.31,3.64,3.64,0,0,0,3.89-1,2.67,2.67,0,0,0,.49-2.07,2.2,2.2,0,0,0-1.4-1.61,5.28,5.28,0,0,0-4.72.54,7.36,7.36,0,0,0-3.14,4.08,12.94,12.94,0,0,0-.52,5.49,9.06,9.06,0,0,0,2.11,5.2,5.6,5.6,0,0,0,5.21,1.76,3.65,3.65,0,0,0,2.27-1.54,1.88,1.88,0,0,0-.15-2.4,3.05,3.05,0,0,0-2.47-.86,4.62,4.62,0,0,0-2.52,1,9.58,9.58,0,0,0-3,4.51,12,12,0,0,0-.68,5.24,7,7,0,0,0,2.12,4.41,5.49,5.49,0,0,0,4.24,1.59,3.16,3.16,0,0,0,3-2.56,2.12,2.12,0,0,0-.78-1.71,3.52,3.52,0,0,0-1.73-.82,5,5,0,0,0-3.5.8,6.78,6.78,0,0,0-2.25,2.41,8.52,8.52,0,0,0-.83,5.22,15.58,15.58,0,0,0,.83,3.33A11.62,11.62,0,0,1,203.86,186.19Z" style="fill:#fafafa"></path><rect x="286.94" y="133.76" width="18.31" height="51.79" style="fill:#455a64"></rect><rect x="183.04" y="139.45" width="17.12" height="46.11" style="fill:#263238"></rect><path d="M182.61,162.44a2.5,2.5,0,0,1-.56.74,8,8,0,0,1-2,1.52,9.32,9.32,0,0,1-3.58,1.11,9,9,0,0,1-4.52-.74c-1.49-.64-2.79-1.44-4.07-1.9a6.2,6.2,0,0,0-3.48-.43,4,4,0,0,0-2.1,1.08c-.4.41-.53.71-.57.69a1.56,1.56,0,0,1,.42-.82,4,4,0,0,1,2.16-1.31,6.44,6.44,0,0,1,3.74.34c1.34.46,2.66,1.25,4.11,1.87a8.76,8.76,0,0,0,4.27.74,9.38,9.38,0,0,0,3.44-1A14.31,14.31,0,0,0,182.61,162.44Z" style="fill:#fafafa"></path><path d="M183,167a2.61,2.61,0,0,1-.55.73,8.32,8.32,0,0,1-2,1.53,9.22,9.22,0,0,1-3.57,1.1,9,9,0,0,1-4.52-.74c-1.5-.64-2.8-1.43-4.07-1.9a6.33,6.33,0,0,0-3.49-.43,4.08,4.08,0,0,0-2.09,1.08c-.4.41-.53.72-.58.69a1.68,1.68,0,0,1,.43-.82,4,4,0,0,1,2.16-1.31,6.49,6.49,0,0,1,3.73.34c1.34.46,2.67,1.26,4.11,1.87a8.94,8.94,0,0,0,4.28.75,9.49,9.49,0,0,0,3.44-1A14.7,14.7,0,0,0,183,167Z" style="fill:#fafafa"></path><path d="M182.71,152.24c0,.14-4.72.26-10.53.26s-10.53-.12-10.53-.26a104.61,104.61,0,0,1,10.53-.26A104.61,104.61,0,0,1,182.71,152.24Z" style="fill:#fafafa"></path><path d="M190.46,146.88s.07-.17.34-.32a1.89,1.89,0,0,1,1.24-.17,2.14,2.14,0,0,1,1.51,1.13,2.1,2.1,0,0,1-2.78,2.67,2.12,2.12,0,0,1-1.06-1.56,1.83,1.83,0,0,1,.22-1.23c.16-.26.31-.34.32-.32a2.6,2.6,0,0,0-.18,1.48,1.79,1.79,0,0,0,.92,1.2,1.66,1.66,0,0,0,2.12-2,1.82,1.82,0,0,0-1.16-1A2.46,2.46,0,0,0,190.46,146.88Z" style="fill:#fafafa"></path><path d="M191.57,180.94c-.14,0-.26-6.46-.26-14.43s.12-14.44.26-14.44.26,6.46.26,14.44S191.72,180.94,191.57,180.94Z" style="fill:#fafafa"></path><rect x="161.95" y="342.4" width="21.71" height="37.41" style="fill:#00FF6A"></rect><rect x="227.08" y="333.7" width="17.14" height="46.71" style="fill:#455a64"></rect><path d="M244.42,337.08a74.81,74.81,0,0,1-8.75.26,74.92,74.92,0,0,1-8.76-.26,72.38,72.38,0,0,1,8.76-.26A72.27,72.27,0,0,1,244.42,337.08Z" style="fill:#fafafa"></path><path d="M243.47,339.29a64.75,64.75,0,0,1-8.28.26,64.75,64.75,0,0,1-8.28-.26,67,67,0,0,1,8.28-.26A67,67,0,0,1,243.47,339.29Z" style="fill:#fafafa"></path><path d="M236.14,371.2c-.14,0-.26-6.19-.26-13.82s.12-13.82.26-13.82.26,6.19.26,13.82S236.29,371.2,236.14,371.2Z" style="fill:#fafafa"></path><path d="M244.22,375.47a66.35,66.35,0,0,1-8.39.26,66.48,66.48,0,0,1-8.39-.26,68.82,68.82,0,0,1,8.39-.26A68.68,68.68,0,0,1,244.22,375.47Z" style="fill:#fafafa"></path><path d="M244.22,377.48a72.24,72.24,0,0,1-8.6.26,72.24,72.24,0,0,1-8.6-.26,69.79,69.79,0,0,1,8.6-.26A69.79,69.79,0,0,1,244.22,377.48Z" style="fill:#fafafa"></path><rect x="213.32" y="328.65" width="13.77" height="51.76" style="fill:#00FF6A"></rect><path d="M227.18,352.42a12.55,12.55,0,0,1-1.9,1.77c-1.22,1-2.94,2.42-4.89,3.89s-3.74,2.77-5.06,3.67a13.05,13.05,0,0,1-2.2,1.36,12,12,0,0,1,2-1.66l5-3.78,5-3.77A13.91,13.91,0,0,1,227.18,352.42Z" style="fill:#fafafa"></path><path d="M227.24,344.32a78.57,78.57,0,0,1-6.71,6.09,77.26,77.26,0,0,1-7.05,5.7,78.57,78.57,0,0,1,6.71-6.09A77.26,77.26,0,0,1,227.24,344.32Z" style="fill:#fafafa"></path><rect x="280.35" y="331.14" width="6.59" height="49.3" style="fill:#455a64"></rect><path d="M286.67,337.86a15.51,15.51,0,0,1-6.17,0,15.51,15.51,0,0,1,6.17,0Z" style="fill:#fafafa"></path><path d="M286.8,336.78c0,.18-1.38.31-3.08.31s-3.09-.13-3.09-.31a15.51,15.51,0,0,1,6.17,0Z" style="fill:#fafafa"></path><path d="M286.67,376.63a15.51,15.51,0,0,1-6.17,0,15.51,15.51,0,0,1,6.17,0Z" style="fill:#fafafa"></path><path d="M286.8,375.56a15.51,15.51,0,0,1-6.17,0,15.51,15.51,0,0,1,6.17,0Z" style="fill:#fafafa"></path><path d="M283.45,369.12c-.17,0-.31-5.65-.31-12.61s.14-12.61.31-12.61.31,5.64.31,12.61S283.62,369.12,283.45,369.12Z" style="fill:#fafafa"></path><rect x="244.25" y="330.83" width="13.17" height="49.3" style="fill:#263238"></rect><path d="M248,380.76s-.07-.08-.16-.27-.22-.45-.37-.82a14.09,14.09,0,0,1-1-3.34,8.69,8.69,0,0,1,.77-5.42,7.3,7.3,0,0,1,2.33-2.58,5.47,5.47,0,0,1,3.8-.9,4,4,0,0,1,2,.91,2.62,2.62,0,0,1,.95,2.08,3,3,0,0,1-1.13,2.09,4.07,4.07,0,0,1-2.25.95,6,6,0,0,1-4.67-1.7,7.47,7.47,0,0,1-2.31-4.74,12.53,12.53,0,0,1,.68-5.5,10.15,10.15,0,0,1,3.23-4.8,5.26,5.26,0,0,1,2.84-1.12,3.68,3.68,0,0,1,3,1,2.42,2.42,0,0,1,.68,1.54,2.82,2.82,0,0,1-.45,1.61,4.3,4.3,0,0,1-2.66,1.82,6.22,6.22,0,0,1-5.81-1.95,9.73,9.73,0,0,1-2.25-5.55,13.56,13.56,0,0,1,.56-5.75,8,8,0,0,1,3.41-4.38,5.83,5.83,0,0,1,5.23-.55,2.75,2.75,0,0,1,1.7,2,3.18,3.18,0,0,1-.6,2.49,4.11,4.11,0,0,1-4.44,1.17,7.7,7.7,0,0,1-3.5-2.49,11.11,11.11,0,0,1-2.62-6.76,10.8,10.8,0,0,1,1.21-5.35,10.93,10.93,0,0,1,2.07-2.8,7.45,7.45,0,0,1,.69-.59,1.29,1.29,0,0,1,.25-.17,12.55,12.55,0,0,0-2.79,3.66,10.67,10.67,0,0,0-1.09,5.24,10.89,10.89,0,0,0,2.62,6.49,7.24,7.24,0,0,0,3.3,2.31,3.65,3.65,0,0,0,3.89-1,2.69,2.69,0,0,0,.49-2.08,2.2,2.2,0,0,0-1.4-1.61,5.29,5.29,0,0,0-4.72.54,7.36,7.36,0,0,0-3.14,4.08,13.14,13.14,0,0,0-.52,5.5,9.08,9.08,0,0,0,2.11,5.2,5.61,5.61,0,0,0,5.21,1.75,3.65,3.65,0,0,0,2.27-1.54,1.88,1.88,0,0,0-.15-2.4,3.08,3.08,0,0,0-2.46-.86,4.75,4.75,0,0,0-2.52,1,9.6,9.6,0,0,0-3,4.51,12.24,12.24,0,0,0-.68,5.25,6.92,6.92,0,0,0,2.13,4.4,5.43,5.43,0,0,0,4.24,1.59,3.14,3.14,0,0,0,3-2.56,2.15,2.15,0,0,0-.77-1.71,3.59,3.59,0,0,0-1.73-.81,5,5,0,0,0-3.51.79,7,7,0,0,0-2.25,2.41,8.62,8.62,0,0,0-.83,5.23,15.58,15.58,0,0,0,.83,3.33C247.81,380.37,248,380.75,248,380.76Z" style="fill:#fafafa"></path><rect x="257.6" y="335.25" width="22.86" height="44.9" style="fill:#00FF6A"></rect><g style="opacity:0.2"><rect x="257.6" y="335.25" width="22.86" height="44.9"></rect></g><path d="M279.67,342.71c0,.17-4.95.31-11.06.31s-11.06-.14-11.06-.31,4.95-.31,11.06-.31S279.67,342.54,279.67,342.71Z" style="fill:#e0e0e0"></path><path d="M280,346.11c0,.17-4.89.31-10.92.31s-10.92-.14-10.92-.31,4.89-.31,10.92-.31S280,345.94,280,346.11Z" style="fill:#e0e0e0"></path><path d="M280.69,375.07c0,.18-5.15.32-11.5.32s-11.5-.14-11.5-.32,5.15-.31,11.5-.31S280.69,374.9,280.69,375.07Z" style="fill:#e0e0e0"></path><path d="M280.38,371.07c0,.18-5,.31-11.2.31s-11.2-.13-11.2-.31,5-.31,11.2-.31S280.38,370.9,280.38,371.07Z" style="fill:#e0e0e0"></path><rect x="200.16" y="330.51" width="13.17" height="49.3" style="fill:#455a64"></rect><path d="M203.86,380.45a1.41,1.41,0,0,1-.15-.27c-.09-.18-.22-.46-.38-.82a14.27,14.27,0,0,1-1-3.35,8.7,8.7,0,0,1,.77-5.42,7.2,7.2,0,0,1,2.33-2.58,5.41,5.41,0,0,1,3.8-.89,4,4,0,0,1,2,.9,2.59,2.59,0,0,1,.94,2.08,3,3,0,0,1-1.12,2.09,4.15,4.15,0,0,1-2.25,1,6,6,0,0,1-4.67-1.7,7.58,7.58,0,0,1-2.32-4.74,12.66,12.66,0,0,1,.69-5.5,10.1,10.1,0,0,1,3.23-4.81,5.34,5.34,0,0,1,2.84-1.12,3.71,3.71,0,0,1,3,1.05,2.42,2.42,0,0,1,.68,1.54,2.76,2.76,0,0,1-.46,1.62,4.26,4.26,0,0,1-2.65,1.81,6.23,6.23,0,0,1-5.81-1.94,9.71,9.71,0,0,1-2.26-5.55,13.76,13.76,0,0,1,.57-5.76,8,8,0,0,1,3.4-4.38,5.88,5.88,0,0,1,5.24-.55,2.77,2.77,0,0,1,1.7,2,3.21,3.21,0,0,1-.6,2.48,4.12,4.12,0,0,1-4.44,1.17,7.63,7.63,0,0,1-3.5-2.48,11.21,11.21,0,0,1-2.63-6.76,11,11,0,0,1,1.22-5.36,10.62,10.62,0,0,1,2.07-2.79,7.45,7.45,0,0,1,.69-.59c.16-.13.24-.19.25-.18a12.72,12.72,0,0,0-2.79,3.67,10.63,10.63,0,0,0-1.09,5.23,10.87,10.87,0,0,0,2.61,6.49,7.27,7.27,0,0,0,3.31,2.32,3.64,3.64,0,0,0,3.89-1,2.67,2.67,0,0,0,.49-2.07,2.23,2.23,0,0,0-1.4-1.62,5.28,5.28,0,0,0-4.72.54,7.39,7.39,0,0,0-3.14,4.08,13,13,0,0,0-.52,5.5,9.06,9.06,0,0,0,2.11,5.2A5.62,5.62,0,0,0,209,360.7a3.73,3.73,0,0,0,2.27-1.54,1.9,1.9,0,0,0-.15-2.41,3.12,3.12,0,0,0-2.47-.86,4.71,4.71,0,0,0-2.52,1,9.58,9.58,0,0,0-3,4.51,12,12,0,0,0-.68,5.24,7,7,0,0,0,2.12,4.41,5.45,5.45,0,0,0,4.24,1.58,3.15,3.15,0,0,0,3-2.55,2.1,2.1,0,0,0-.78-1.71,3.44,3.44,0,0,0-1.73-.82,5,5,0,0,0-3.5.79,6.89,6.89,0,0,0-2.25,2.42,8.52,8.52,0,0,0-.83,5.22,15.58,15.58,0,0,0,.83,3.33A10.58,10.58,0,0,1,203.86,380.45Z" style="fill:#fafafa"></path><rect x="286.94" y="328.02" width="18.31" height="51.79" style="fill:#455a64"></rect><rect x="183.04" y="333.7" width="17.12" height="46.11" style="fill:#263238"></rect><path d="M182.61,356.7a2.4,2.4,0,0,1-.56.73,7.75,7.75,0,0,1-2,1.53,9.5,9.5,0,0,1-3.58,1.11,9.16,9.16,0,0,1-4.52-.74c-1.49-.65-2.79-1.44-4.07-1.91a6.39,6.39,0,0,0-3.48-.43,4.12,4.12,0,0,0-2.1,1.09c-.4.4-.53.71-.57.69a1.57,1.57,0,0,1,.42-.83,4,4,0,0,1,2.16-1.31,6.52,6.52,0,0,1,3.74.34c1.34.47,2.66,1.26,4.11,1.88a8.87,8.87,0,0,0,4.27.74,9.38,9.38,0,0,0,3.44-1A14.05,14.05,0,0,0,182.61,356.7Z" style="fill:#fafafa"></path><path d="M183,361.26a2.55,2.55,0,0,1-.55.74,8.07,8.07,0,0,1-2,1.52,9.21,9.21,0,0,1-3.57,1.11,9,9,0,0,1-4.52-.74c-1.5-.64-2.8-1.44-4.07-1.9a6.24,6.24,0,0,0-3.49-.43,4,4,0,0,0-2.09,1.08c-.4.41-.53.71-.58.69a1.64,1.64,0,0,1,.43-.82,4,4,0,0,1,2.16-1.31,6.41,6.41,0,0,1,3.73.34c1.34.46,2.67,1.25,4.11,1.87a8.81,8.81,0,0,0,4.28.74,9.5,9.5,0,0,0,3.44-.95A14.41,14.41,0,0,0,183,361.26Z" style="fill:#fafafa"></path><path d="M182.71,346.49a104.61,104.61,0,0,1-10.53.26,104.61,104.61,0,0,1-10.53-.26c0-.14,4.72-.26,10.53-.26S182.71,346.35,182.71,346.49Z" style="fill:#fafafa"></path><path d="M190.46,341.13s.07-.16.34-.31a1.83,1.83,0,0,1,1.24-.17,2.1,2.1,0,0,1,1.51,1.12,2.1,2.1,0,0,1-2.78,2.67,2.1,2.1,0,0,1-1.06-1.55,1.87,1.87,0,0,1,.22-1.24c.16-.25.31-.33.32-.31a2.6,2.6,0,0,0-.18,1.48A1.79,1.79,0,0,0,191,344a1.65,1.65,0,0,0,2.12-2,1.79,1.79,0,0,0-1.16-1A2.61,2.61,0,0,0,190.46,341.13Z" style="fill:#fafafa"></path><path d="M191.57,375.2c-.14,0-.26-6.47-.26-14.44s.12-14.43.26-14.43.26,6.46.26,14.43S191.72,375.2,191.57,375.2Z" style="fill:#fafafa"></path><g style="opacity:0.6000000000000001"><rect x="319.47" y="56.5" width="45.32" height="376.72"></rect></g><path d="M305.22,250.55c0,.15-35.77.26-79.88.26s-79.89-.11-79.89-.26,35.76-.26,79.89-.26S305.22,250.41,305.22,250.55Z" style="fill:#263238"></path><path d="M305.22,316c0,.14-35.77.26-79.88.26s-79.89-.12-79.89-.26,35.76-.26,79.89-.26S305.22,315.85,305.22,316Z" style="fill:#263238"></path><path d="M305.22,185.56c0,.14-35.77.26-79.88.26s-79.89-.12-79.89-.26,35.76-.26,79.89-.26S305.22,185.41,305.22,185.56Z" style="fill:#263238"></path><path d="M305.22,120.66c0,.14-35.77.26-79.88.26s-79.89-.12-79.89-.26,35.76-.26,79.89-.26S305.22,120.52,305.22,120.66Z" style="fill:#263238"></path><path d="M305.22,380.13c0,.14-35.77.26-79.88.26s-79.89-.12-79.89-.26,35.76-.26,79.89-.26S305.22,380,305.22,380.13Z" style="fill:#263238"></path></g><g id="freepik--Glass--inject-114"><path d="M366.49,466.74a9.47,9.47,0,0,0-4.11,1.11,3.27,3.27,0,0,0-1.55,3.67c.63,1.66,2.78,2.07,4.56,2.07a47,47,0,0,0,11.54-1.67c1.7-.44,3.51-1,4.57-2.42a1.73,1.73,0,0,0,.29-1.89c-.48-.74-1.57-.6-2.43-.42a26.53,26.53,0,0,1-13.21-.59" style="fill:#ebebeb"></path><path d="M364.32,422.55s-3.46,18.85,8,21.28l.37,19.79s-6.19,2.45-5.93,3.49,14.45,1.36,14.07-.2-6-3.19-6-3.19l.08-20.16s7.31-.54,7.64-9.51-.05-11.39-.05-11.39S373.41,417.2,364.32,422.55Z" style="fill:#fff"></path><path d="M364.32,422.55a3,3,0,0,1,.29-.16l.86-.47c.19-.09.4-.22.65-.32l.81-.32c.29-.11.6-.26.95-.36l1.12-.3a17.61,17.61,0,0,1,6-.37,17.35,17.35,0,0,1,1.8.26c.6.14,1.24.26,1.87.47a18.78,18.78,0,0,1,3.9,1.6l0,0v0a50.38,50.38,0,0,1,.2,5.44c0,1.91,0,3.9-.12,6a11.32,11.32,0,0,1-1.88,6.16,8.65,8.65,0,0,1-5.87,3.47l.12-.12c0,6.22,0,13-.07,20.16l-.1-.13a24.84,24.84,0,0,1,4.42,1.74,5.9,5.9,0,0,1,1.31.93,2,2,0,0,1,.25.33.93.93,0,0,1,.1.2.45.45,0,0,1,0,.27.64.64,0,0,1-.32.36,2.39,2.39,0,0,1-.38.16,13.73,13.73,0,0,1-3.09.45,53.44,53.44,0,0,1-6.07,0c-1-.06-2-.14-3-.29l-.73-.15-.36-.11a1,1,0,0,1-.37-.23.47.47,0,0,1,0-.49,2,2,0,0,1,.26-.31,5.09,5.09,0,0,1,.58-.46,20,20,0,0,1,2.53-1.37c.86-.4,1.71-.77,2.58-1.12l-.09.12c-.12-7.3-.24-14-.34-19.79l.08.1a9.31,9.31,0,0,1-4.79-2.64,11.27,11.27,0,0,1-.84-1c-.22-.36-.48-.69-.67-1.06l-.3-.53c-.08-.19-.17-.37-.25-.55-.18-.36-.3-.74-.45-1.09a20,20,0,0,1-1-4.18,30.33,30.33,0,0,1-.26-3.61,38,38,0,0,1,.27-5c.07-.57.14-1,.19-1.29a4,4,0,0,1,.08-.44s0,.15-.05.44-.1.73-.16,1.3a40,40,0,0,0-.21,5,30.31,30.31,0,0,0,.28,3.59,19.65,19.65,0,0,0,1,4.14c.14.35.26.72.44,1.08.09.17.17.35.26.54l.29.52c.19.37.45.69.67,1a9.46,9.46,0,0,0,.83,1,9,9,0,0,0,4.7,2.56l.08,0v.08c.11,5.81.25,12.49.39,19.8v.08l-.08,0c-.85.34-1.71.71-2.56,1.11a20,20,0,0,0-2.49,1.36,3.37,3.37,0,0,0-.55.43,1.21,1.21,0,0,0-.21.25.24.24,0,0,0,0,.2,1.48,1.48,0,0,0,.59.24,5.57,5.57,0,0,0,.71.14,28,28,0,0,0,2.93.29,52.72,52.72,0,0,0,6,0,14.48,14.48,0,0,0,3-.44c.22-.07.5-.2.52-.33a.44.44,0,0,0-.09-.27,1.18,1.18,0,0,0-.22-.28,5.25,5.25,0,0,0-1.24-.88,25.21,25.21,0,0,0-4.37-1.72l-.09,0v-.1c0-7.12.06-13.94.09-20.16v-.11l.11,0a8.36,8.36,0,0,0,5.69-3.36,11,11,0,0,0,1.85-6c.08-2.08.14-4.07.15-6a49.24,49.24,0,0,0-.19-5.4l.05.06a18.73,18.73,0,0,0-3.85-1.6c-.63-.21-1.26-.34-1.87-.48s-1.2-.23-1.78-.27a18,18,0,0,0-5.91.33l-1.12.29c-.35.09-.66.24-1,.34l-.82.31c-.24.09-.45.22-.64.31l-.87.43Z" style="fill:#263238"></path><path d="M382.54,422.46s-.24.12-.68.31c-.22.09-.49.2-.81.31s-.68.25-1.1.36a24.07,24.07,0,0,1-2.93.66,24.19,24.19,0,0,1-7.34,0,24.55,24.55,0,0,1-2.94-.64c-.41-.11-.77-.24-1.1-.35s-.59-.21-.81-.31a4,4,0,0,1-.68-.31,5.26,5.26,0,0,1,.72.21c.22.08.5.17.82.26s.69.22,1.1.31a25.72,25.72,0,0,0,2.93.58,25.47,25.47,0,0,0,7.26,0,25.19,25.19,0,0,0,2.92-.6c.41-.1.78-.22,1.1-.31l.83-.27A3.71,3.71,0,0,1,382.54,422.46Z" style="fill:#263238"></path><path d="M365,430.66a22.6,22.6,0,0,0,1.91,6.78,7.93,7.93,0,0,0,5.3,4.32,7.18,7.18,0,0,0,7-3.33,12.58,12.58,0,0,0,2.07-8.2.6.6,0,0,0-.48-.57,3.69,3.69,0,0,0-1.73-.23,7.33,7.33,0,0,0-1.35.66c-2,1-4.38.62-6.57.19s-3.88-1.12-6.17.38" style="fill:#00FF6A"></path><g style="opacity:0.2"><path d="M380.57,425.82a20,20,0,0,1-.31,7.86,10.79,10.79,0,0,1-2.78,6c-1.61,1.56-4.23,2.23-6.15,1.08a2.75,2.75,0,0,1-1.29-1.54,1.69,1.69,0,0,1,.58-1.84c.75-.51,1.76-.17,2.67-.17a4.42,4.42,0,0,0,3.79-2.76,8.7,8.7,0,0,0,.4-4.88,10.5,10.5,0,0,1-.24-2.55,2.54,2.54,0,0,1,1.29-2.09,1.47,1.47,0,0,1,2,.9" style="fill:#fff"></path></g></g></svg>